<svg width="23" height="22" viewBox="0 0 23 22" fill="none" xmlns="http://www.w3.org/2000/svg">
<g clip-path="url(#clip0_2_673)">
<path fill-rule="evenodd" clip-rule="evenodd" d="M11.3699 0.00341797C5.31987 0.00341797 0.369873 4.95342 0.369873 11.0034C0.369873 17.0534 5.31987 22.0034 11.3699 22.0034C17.4199 22.0034 22.3699 17.0534 22.3699 11.0034C22.3699 4.95342 17.4199 0.00341797 11.3699 0.00341797ZM11.3699 20.6284C6.05321 20.6284 1.74487 16.3201 1.74487 11.0034C1.74487 5.68675 6.05321 1.37842 11.3699 1.37842C16.6865 1.37842 20.9949 5.68675 20.9949 11.0034C20.9949 16.3201 16.6865 20.6284 11.3699 20.6284ZM16.0449 5.41175L9.26154 8.62008C9.12404 8.66592 8.98654 8.80342 8.94071 8.94092L5.73237 15.7243C5.59487 15.9993 5.64071 16.3201 5.86987 16.5034C6.00737 16.6409 6.19071 16.6868 6.37404 16.6868C6.46571 16.6868 6.55737 16.6868 6.64904 16.6409L13.4324 13.4326C13.5699 13.3868 13.7074 13.2493 13.7532 13.1118L16.9615 6.32842C17.099 6.05342 17.0532 5.73258 16.824 5.54925C16.6407 5.32009 16.3199 5.27425 16.0449 5.41175ZM12.6532 12.2868L10.1324 9.76592L14.9449 7.47425L12.6532 12.2868Z" fill="white"/>
</g>
<defs>
<clipPath id="clip0_2_673">
<rect width="22" height="22" fill="white" transform="translate(0.369873 0.00341797)"/>
</clipPath>
</defs>
</svg>
