<svg width="23" height="22" viewBox="0 0 23 22" fill="none" xmlns="http://www.w3.org/2000/svg">
<g clip-path="url(#clip0_2_674)">
<path d="M16.7282 2.79932C19.3407 2.79932 21.4949 5.18265 21.4949 8.07015C21.4949 11.1868 18.7907 13.1118 16.224 15.4035C13.6574 17.6951 12.3282 18.9327 11.8699 19.2077C11.3657 18.8868 9.71571 17.3743 7.51571 15.4035C4.90321 13.1118 2.24487 11.1868 2.24487 8.07015C2.24487 5.18265 4.39904 2.79932 7.01154 2.79932C8.93654 2.79932 9.99071 3.71598 10.724 4.77015C11.5949 5.96182 11.7324 6.55765 11.8699 6.55765C12.0074 6.55765 12.1449 5.96182 13.0157 4.77015C13.749 3.71598 14.8032 2.79932 16.7282 2.79932ZM16.7282 1.42432C14.6657 1.42432 13.1074 2.24932 11.8699 3.99098C10.6324 2.29515 9.07404 1.47015 7.01154 1.47015C3.61987 1.42432 0.869873 4.40348 0.869873 8.07015C0.869873 11.416 3.34487 13.5701 5.72821 15.6326C6.00321 15.8618 6.32404 16.1368 6.59904 16.4118L7.65321 17.3285C9.66987 19.116 10.6782 20.0326 11.1365 20.3076C11.3657 20.4452 11.6407 20.5368 11.8699 20.5368C12.1449 20.5368 12.374 20.4452 12.6032 20.3076C13.0615 20.0326 13.8865 19.2993 16.1782 17.191L17.0949 16.366C17.4157 16.091 17.6907 15.816 18.0115 15.5868C20.4407 13.5701 22.8699 11.4618 22.8699 8.07015C22.8699 4.40348 20.1199 1.42432 16.7282 1.42432Z" fill="white"/>
</g>
<defs>
<clipPath id="clip0_2_674">
<rect width="22" height="22" fill="white" transform="translate(0.869873 0.00341797)"/>
</clipPath>
</defs>
</svg>
