<svg width="23" height="22" viewBox="0 0 23 22" fill="none" xmlns="http://www.w3.org/2000/svg">
<g clip-path="url(#clip0_2_670)">
<path d="M21.724 22.0034H14.6656C14.299 22.0034 13.9781 21.6826 13.9781 21.3159V15.6784C13.9781 14.4867 13.0156 13.5701 11.8698 13.5701C10.724 13.5701 9.76146 14.5326 9.76146 15.6784V21.3159C9.76146 21.6826 9.44063 22.0034 9.07396 22.0034H2.01562C1.64896 22.0034 1.32812 21.6826 1.32812 21.3159V10.5451C1.32812 10.3617 1.41979 10.1784 1.51146 10.0409L11.3656 0.186719C11.6406 -0.0882813 12.099 -0.0882813 12.3281 0.186719L22.1823 10.0409C22.3198 10.1784 22.3656 10.3617 22.3656 10.5451V21.3159C22.4115 21.6826 22.0906 22.0034 21.724 22.0034Z" fill="white"/>
</g>
<defs>
<clipPath id="clip0_2_670">
<rect width="22" height="22" fill="white" transform="translate(0.869873 0.00341797)"/>
</clipPath>
</defs>
</svg>
