<svg width="118" height="33" viewBox="0 0 118 33" fill="none" xmlns="http://www.w3.org/2000/svg">
<path d="M6.86846 0.115775C4.48277 1.09171 1.86049 3.84534 1.03222 7.30438C-0.0168756 11.6856 4.34803 13.5389 4.70633 12.9321C5.12766 12.2182 3.92419 11.9769 3.67642 9.70341C3.35626 6.76712 4.75406 3.48628 6.51336 2.04668C6.83992 1.77906 6.82462 2.1515 6.82462 2.83996C6.82462 4.07126 6.75497 15.125 6.75497 17.4319C6.75497 20.5533 6.62297 21.5391 6.38571 22.5132C6.1457 23.5001 5.75931 24.1671 6.05184 24.4241C6.37885 24.7113 7.77506 24.0278 8.58323 22.9263C9.5524 21.6051 9.89174 20.0181 9.95272 18.2953C10.0262 16.218 10.0231 12.9218 10.0263 11.0417C10.029 9.31758 10.0559 4.26863 9.99519 1.23333C9.98035 0.488441 7.86618 -0.292575 6.86846 0.115775Z" fill="white"/>
<path d="M91.5777 14.7242C91.5007 16.3471 91.1328 17.6154 90.6763 18.5102C89.7926 20.2424 87.9588 20.7801 87.1801 18.2903C86.7558 16.933 86.7359 14.6662 87.0408 12.7721C87.3514 10.8428 88.2187 9.38556 89.6544 9.51691C91.0707 9.64693 91.7336 11.4291 91.5777 14.7244V14.7242ZM67.7024 24.7927C67.6833 27.489 67.2487 29.853 66.317 30.5399C64.9952 31.5136 63.2188 30.783 63.5867 28.8155C63.9121 27.0744 65.4515 25.2963 67.7063 23.1236C67.7063 23.1236 67.7109 23.6191 67.7024 24.7927ZM67.3416 14.7084C67.2608 16.1866 66.8685 17.6712 66.4403 18.5102C65.5565 20.2424 63.7095 20.7839 62.9441 18.2903C62.4207 16.5864 62.546 14.3816 62.8048 12.9922C63.1409 11.1896 63.9557 9.51714 65.4184 9.51714C66.8406 9.51714 67.5421 11.041 67.3416 14.7084ZM53.5109 14.6861C53.4241 16.2512 53.1115 17.5597 52.6098 18.5102C51.7018 20.2306 49.9055 20.7761 49.1136 18.2903C48.5424 16.4979 48.7368 14.054 48.9743 12.7338C49.3268 10.7745 50.2097 9.38556 51.5879 9.51714C53.0035 9.65229 53.6915 11.4291 53.5109 14.6861ZM116.893 16.5144C116.547 16.5144 116.389 16.8627 116.259 17.4488C115.806 19.4881 115.329 19.9482 114.715 19.9482C114.029 19.9482 113.412 18.9388 113.254 16.9178C113.129 15.3286 113.149 12.403 113.308 9.49283C113.341 8.89491 113.172 8.30324 111.53 7.72071C110.823 7.47004 109.796 7.10094 109.285 8.30658C107.84 11.713 107.274 14.4173 107.141 15.5155C107.134 15.5724 107.063 15.5842 107.051 15.4513C106.966 14.5714 106.776 12.9724 106.753 9.61326C106.748 8.9578 106.606 8.40003 105.865 7.94328C105.384 7.64667 103.925 7.12257 103.399 7.74636C102.944 8.25618 102.417 9.62865 101.869 11.2558C101.423 12.5783 101.113 13.4726 101.113 13.4726C101.113 13.4726 101.119 9.90475 101.125 8.55124C101.127 8.04074 100.768 7.87058 100.66 7.8398C100.174 7.70198 99.2145 7.4716 98.8076 7.4716C98.3052 7.4716 98.1823 7.74547 98.1823 8.14512C98.1823 8.19753 98.1031 12.8426 98.1031 16.0907C98.1031 16.2318 98.1031 16.3857 98.1038 16.5494C97.8261 18.0423 96.9252 20.0687 95.9455 20.0687C94.9645 20.0687 94.5018 19.2216 94.5018 15.3493C94.5018 13.0904 94.5713 12.108 94.6053 10.4741C94.6252 9.53297 94.6635 8.81039 94.6612 8.64647C94.6539 8.14356 93.7638 7.88998 93.3493 7.79631C92.933 7.70198 92.5713 7.66518 92.2888 7.68101C91.8889 7.70332 91.606 7.95912 91.606 8.31149C91.606 8.50061 91.6083 8.85967 91.6083 8.85967C91.0933 8.06929 90.265 7.51932 89.714 7.35986C88.2297 6.92944 86.6809 7.3108 85.5126 8.9074C84.5841 10.1757 84.0244 11.6126 83.804 13.6767C83.643 15.1859 83.6955 16.716 83.9819 18.0102C83.6359 19.4705 82.994 20.0687 82.2909 20.0687C81.2701 20.0687 80.5302 18.442 80.6161 15.6279C80.6727 13.777 81.052 12.4782 81.4665 10.599C81.6432 9.79792 81.4996 9.37864 81.1395 8.97676C80.809 8.60811 80.105 8.41965 79.0934 8.65115C78.3726 8.81641 77.342 8.99415 76.3991 9.13064C76.3991 9.13064 76.4562 8.90874 76.5028 8.51801C76.7481 6.46845 74.4674 6.6346 73.7396 7.28917C73.3055 7.68012 73.0098 8.1411 72.8977 8.96985C72.7195 10.2852 73.818 10.9057 73.818 10.9057C73.4578 12.5168 72.5743 14.6212 71.6622 16.1428C71.1738 16.958 70.8002 17.5621 70.3176 18.2042C70.3019 15.6275 70.3191 13.0507 70.3692 10.4743C70.3891 9.53319 70.4277 8.82979 70.4257 8.66565C70.4202 8.29811 70.2003 8.15895 69.7428 7.98321C69.3382 7.82754 68.86 7.72004 68.3638 7.68213C67.7376 7.63485 67.3604 7.9589 67.3704 8.34249C67.3722 8.41497 67.3722 8.85967 67.3722 8.85967C66.8573 8.06929 66.029 7.51932 65.478 7.35986C63.9936 6.92944 62.4449 7.3108 61.2766 8.9074C60.3483 10.1757 59.7404 11.9559 59.568 13.6611C59.4076 15.2501 59.4371 16.6005 59.6559 17.7383C59.42 18.8775 58.7413 20.0689 57.9742 20.0689C56.9932 20.0689 56.4351 19.2216 56.4351 15.3493C56.4351 13.0904 56.5045 12.108 56.5387 10.4741C56.5586 9.53319 56.5967 8.81039 56.5947 8.64647C56.5874 8.14356 55.697 7.89021 55.2825 7.79631C54.8491 7.69819 54.4748 7.6625 54.1873 7.68324C53.8082 7.71067 53.5415 8.04231 53.5415 8.28963V8.85967C53.0265 8.06929 52.1983 7.51932 51.6472 7.35986C50.1629 6.92944 48.6228 7.31704 47.4458 8.9074C46.6785 9.94422 46.0572 11.0937 45.7375 13.6383C45.645 14.3736 45.6041 15.0625 45.6096 15.7059C45.3036 17.5338 43.9517 19.6405 42.8462 19.6405C42.1992 19.6405 41.5829 18.4147 41.5829 15.803C41.5829 12.3238 41.8035 7.37012 41.8409 6.89286C41.8409 6.89286 43.2378 6.86967 43.5082 6.86654C44.2051 6.85896 44.8361 6.87524 45.7644 6.82863C46.2298 6.80566 46.6783 5.17382 46.1978 4.97199C45.98 4.88055 44.441 4.80071 43.8309 4.788C43.318 4.77685 41.8898 4.67336 41.8898 4.67336C41.8898 4.67336 42.0179 1.38538 42.0478 1.03814C42.0729 0.748435 41.6893 0.599458 41.4696 0.509134C40.9348 0.288345 40.4564 0.18241 39.8893 0.0682238C39.1056 -0.0896744 38.7503 0.0648785 38.6808 0.710522C38.5763 1.69069 38.5221 4.56163 38.5221 4.56163C37.9471 4.56163 35.9827 4.45191 35.4077 4.45191C34.8734 4.45191 34.2965 6.69638 35.0355 6.72403C35.8855 6.75615 37.3668 6.78425 38.3488 6.8128C38.3488 6.8128 38.305 11.8481 38.305 13.403C38.305 13.5681 38.3059 13.7275 38.3068 13.8821C37.7663 16.633 35.8626 18.1192 35.8626 18.1192C36.2714 16.2992 35.4363 14.9323 33.9321 13.7753C33.3778 13.3491 32.2837 12.542 31.0597 11.6575C31.0597 11.6575 31.7686 10.975 32.3975 9.60211C32.8428 8.62929 32.8622 7.51665 31.7686 7.2711C29.9618 6.86521 28.4722 8.16117 28.0278 9.54479C27.6834 10.6166 27.867 11.4117 28.5416 12.2378C28.5907 12.2982 28.6443 12.36 28.6992 12.422C28.2915 13.1896 27.7311 14.2233 27.2566 15.0248C25.9394 17.2506 24.9444 19.0107 24.1924 19.0107C23.5914 19.0107 23.5994 17.2234 23.5994 15.5501C23.5994 14.1076 23.7085 11.9387 23.7958 9.69355C23.8245 8.95089 23.4441 8.52782 22.807 8.14467C22.4197 7.91184 21.5932 7.4542 21.1146 7.4542C20.398 7.4542 18.3308 7.54943 16.3779 13.0669C16.1317 13.7623 15.648 15.0295 15.648 15.0295L15.6898 8.39445C15.6898 8.23879 15.6049 8.08847 15.4105 7.98566C15.0815 7.81103 14.2025 7.4542 13.4208 7.4542C13.0486 7.4542 12.8625 7.62325 12.8625 7.96046L12.7944 18.3411C12.7944 19.13 12.8154 20.0501 12.8954 20.4525C12.9748 20.8553 13.1039 21.1831 13.2633 21.378C13.4229 21.5727 13.6072 21.7215 13.9111 21.7826C14.1941 21.8394 15.7433 22.0337 15.8239 21.4556C15.9203 20.7625 15.9241 20.0131 16.7376 17.2178C18.0041 12.8658 19.6551 10.7426 20.4315 9.98838C20.5674 9.8568 20.7222 9.84877 20.7147 10.0644C20.6818 11.0185 20.5651 13.403 20.4868 15.4281C20.2765 20.8486 21.2861 21.8533 22.7291 21.8533C23.833 21.8533 25.389 20.7821 27.057 18.0706C27.9864 16.5596 28.9115 15.046 29.8323 13.5299C30.3376 13.9869 30.9051 14.4787 31.4719 15.0041C32.7896 16.2254 33.2221 17.386 32.935 18.4868C32.7158 19.3282 31.8889 20.1956 30.4176 19.3528C29.9887 19.1068 29.8056 18.9165 29.3744 18.6393C29.1429 18.4906 28.7891 18.446 28.577 18.6021C28.0262 19.0075 27.711 19.5236 27.5311 20.1623C27.3562 20.7839 27.9935 21.1124 28.6544 21.3999C29.2232 21.6472 30.4461 21.8713 31.2257 21.8968C34.2641 21.996 36.6982 20.4641 38.3927 16.5124C38.6959 19.9253 39.9866 21.8564 42.2294 21.8564C43.7288 21.8564 45.2321 19.9636 45.8895 18.1016C46.0782 18.8606 46.3577 19.5207 46.7185 20.0789C48.4465 22.7529 51.7989 22.1775 53.4828 19.9067C54.0035 19.2051 54.0827 18.9531 54.0827 18.9531C54.3284 21.097 56.0964 21.8461 57.1085 21.8461C58.2423 21.8461 59.4127 21.3227 60.2332 19.5189C60.3293 19.7147 60.4344 19.9018 60.549 20.0789C62.277 22.7529 65.6296 22.1775 67.3135 19.9067C67.393 19.8001 67.462 19.7038 67.522 19.6168L67.5714 21.0252L66.021 22.4139C63.4223 24.74 61.4483 26.5041 61.3031 28.5588C61.1181 31.1786 63.2925 32.1523 64.9399 32.2799C66.6862 32.4153 68.1845 31.4723 69.1039 30.1527C69.9132 28.991 70.443 26.491 70.404 24.0219C70.3887 23.033 70.3629 21.7759 70.343 20.4282C71.2553 19.3936 72.2831 18.0858 73.2295 16.5554C74.2608 14.8875 75.366 12.6474 75.9319 10.9041C75.9319 10.9041 76.8922 10.9124 77.9171 10.8468C78.2448 10.8258 78.3391 10.8914 78.2783 11.1258C78.2053 11.4095 76.9835 16.011 78.0986 19.0764C78.8616 21.1751 80.5818 21.8499 81.6017 21.8499C82.7958 21.8499 83.9378 20.9694 84.5498 19.6621C84.6238 19.8077 84.7008 19.9487 84.785 20.0791C86.5131 22.7532 89.8538 22.174 91.5496 19.9067C91.9323 19.3951 92.1495 18.9531 92.1495 18.9531C92.5133 21.1722 94.2803 21.8575 95.2924 21.8575C96.3465 21.8575 97.3472 21.4353 98.1588 19.5595C98.1931 20.3856 98.2463 21.0609 98.3306 21.2736C98.3819 21.4041 98.6815 21.5674 98.8994 21.6463C99.864 21.9956 100.847 21.8305 101.211 21.7587C101.463 21.7088 101.66 21.5112 101.687 21.0013C101.758 19.6621 101.714 17.412 102.13 15.7396C102.828 12.9334 103.479 11.8448 103.787 11.306C103.96 11.0038 104.155 10.9541 104.162 11.2736C104.177 11.9204 104.21 13.819 104.48 16.3703C104.679 18.2464 104.944 19.3554 105.148 19.7067C105.729 20.7103 106.448 20.7578 107.033 20.7578C107.405 20.7578 108.183 20.6574 108.114 20.0187C108.08 19.7074 108.139 17.7832 108.827 15.0184C109.276 13.2128 110.025 11.5816 110.295 10.9851C110.395 10.7652 110.441 10.9384 110.44 10.9723C110.383 12.2157 110.255 16.2827 110.774 18.5071C111.477 21.5203 113.511 21.8575 114.22 21.8575C115.733 21.8575 116.97 20.7335 117.387 17.7758C117.488 17.0639 117.339 16.5144 116.893 16.5144Z" fill="white"/>
</svg>
