<svg width="11" height="11" viewBox="0 0 11 11" fill="none" xmlns="http://www.w3.org/2000/svg">
<path d="M5.71816 6.17094C5.38863 6.17094 5.06649 6.07322 4.79249 5.89014C4.5185 5.70706 4.30494 5.44685 4.17883 5.14239C4.05272 4.83794 4.01973 4.50293 4.08402 4.17973C4.14831 3.85653 4.30699 3.55965 4.54001 3.32663C4.77303 3.09361 5.06991 2.93493 5.39311 2.87064C5.71631 2.80635 6.05132 2.83934 6.35577 2.96545C6.66022 3.09156 6.92044 3.30512 7.10352 3.57911C7.2866 3.85311 7.38432 4.17525 7.38432 4.50478C7.38432 4.94668 7.20878 5.37047 6.89632 5.68294C6.58385 5.9954 6.16006 6.17094 5.71816 6.17094ZM5.71816 3.50509C5.52044 3.50509 5.32716 3.56372 5.16276 3.67357C4.99836 3.78341 4.87023 3.93955 4.79456 4.12222C4.7189 4.30489 4.6991 4.50589 4.73768 4.69981C4.77625 4.89374 4.87146 5.07186 5.01127 5.21167C5.15108 5.35148 5.32921 5.4467 5.52313 5.48527C5.71705 5.52384 5.91806 5.50405 6.10073 5.42838C6.2834 5.35272 6.43953 5.22458 6.54938 5.06018C6.65923 4.89579 6.71786 4.7025 6.71786 4.50478C6.71786 4.23965 6.61253 3.98537 6.42505 3.79789C6.23757 3.61041 5.9833 3.50509 5.71816 3.50509Z" fill="#989898"/>
<path d="M8.53977 9.30323C8.45991 9.30186 8.38362 9.25953 8.32714 9.18526C8.27067 9.11099 8.23848 9.01065 8.23744 8.90562C8.23744 7.87185 7.81015 7.18266 5.71804 7.18266C3.62594 7.18266 3.19865 7.87185 3.19865 8.90562C3.19865 9.01108 3.1668 9.11221 3.1101 9.18678C3.0534 9.26134 2.9765 9.30323 2.89632 9.30323C2.81614 9.30323 2.73924 9.26134 2.68254 9.18678C2.62585 9.11221 2.59399 9.01108 2.59399 8.90562C2.59399 6.38745 4.78284 6.38745 5.71804 6.38745C6.65324 6.38745 8.84209 6.38745 8.84209 8.90562C8.84105 9.01065 8.80886 9.11099 8.75239 9.18526C8.69592 9.25953 8.61962 9.30186 8.53977 9.30323Z" fill="#989898"/>
<path fill-rule="evenodd" clip-rule="evenodd" d="M9.93176 9.65096V2.33033C9.93176 2.20104 9.82696 2.09624 9.69767 2.09624H7.45161C6.9528 2.09624 6.48115 1.86904 6.17024 1.47898L6.11493 1.40959C6.02121 1.29202 5.84254 1.29202 5.74882 1.40959L5.69351 1.47898C5.3826 1.86904 4.91095 2.09624 4.41214 2.09624H1.73861C1.60932 2.09624 1.50452 2.20104 1.50452 2.33033V9.65096C1.50452 9.78025 1.60932 9.88505 1.73861 9.88505H9.69767C9.82696 9.88505 9.93176 9.78025 9.93176 9.65096ZM1.73861 1.39397C1.22147 1.39397 0.802246 1.81319 0.802246 2.33033V9.65096C0.802246 10.1681 1.22147 10.5873 1.73861 10.5873H9.69767C10.2148 10.5873 10.634 10.1681 10.634 9.65096V2.33033C10.634 1.81319 10.2148 1.39397 9.69767 1.39397H7.45161C7.16657 1.39397 6.89706 1.26414 6.7194 1.04125L6.66408 0.971856C6.28922 0.501569 5.57453 0.501569 5.19967 0.971857L5.14435 1.04125C4.96669 1.26414 4.69718 1.39397 4.41214 1.39397H1.73861Z" fill="#989898"/>
</svg>
