<svg width="23" height="22" viewBox="0 0 23 22" fill="none" xmlns="http://www.w3.org/2000/svg">
<g clip-path="url(#clip0_2_671)">
<path d="M16.9615 7.6575L13.6615 10.1783C13.4323 10.3617 13.1115 10.3617 12.8823 10.1783L10.4073 8.345C9.67396 7.795 8.61979 7.97834 8.11562 8.7575L4.99896 13.6617C4.67813 14.12 5.27396 14.67 5.73229 14.3492L9.07812 11.8283C9.30729 11.645 9.62813 11.645 9.85729 11.8283L12.3323 13.6617C13.0656 14.2117 14.1198 14.0283 14.624 13.2492L17.7406 8.345C18.0156 7.84084 17.4198 7.33667 16.9615 7.6575ZM11.3698 0.46167C5.41146 0.46167 0.828125 4.81584 0.828125 10.6825C0.828125 13.7533 2.06562 16.4117 4.12812 18.245C4.31146 18.3825 4.40313 18.6117 4.40313 18.8408L4.49479 20.72C4.49479 21.1783 4.90729 21.545 5.31979 21.545C5.41146 21.545 5.54896 21.545 5.64062 21.4533L7.74896 20.5367C7.84063 20.4908 7.97812 20.445 8.06979 20.445C8.16146 20.445 8.20729 20.445 8.29896 20.4908C9.26146 20.7658 10.2698 20.9033 11.3698 20.9033C17.3281 20.9033 21.9115 16.5492 21.9115 10.6825C21.9115 4.81584 17.3281 0.46167 11.3698 0.46167ZM11.3698 19.5283C10.4531 19.5283 9.53646 19.3908 8.66563 19.1617C8.48229 19.1158 8.29896 19.07 8.06979 19.07C7.74896 19.07 7.47396 19.1158 7.15313 19.2533L5.77813 19.8492V18.795C5.77813 18.1992 5.50313 17.6492 5.04479 17.2367C3.21146 15.5867 2.20312 13.2492 2.20312 10.6825C2.20312 5.64084 6.14479 1.83667 11.3698 1.83667C16.5948 1.83667 20.5365 5.64084 20.5365 10.6825C20.5365 15.7242 16.5948 19.5283 11.3698 19.5283Z" fill="white"/>
</g>
<defs>
<clipPath id="clip0_2_671">
<rect width="22" height="22" fill="white" transform="translate(0.369873 0.00341797)"/>
</clipPath>
</defs>
</svg>
