<svg width="23" height="22" viewBox="0 0 23 22" fill="none" xmlns="http://www.w3.org/2000/svg">
<g clip-path="url(#clip0_2_672)">
<path d="M15.4449 22.0034H8.29487C5.26987 22.0034 3.89487 21.2701 2.74904 20.1701C1.60321 18.9784 0.869873 17.6034 0.869873 14.5784V7.42842C0.869873 4.40342 1.60321 3.02842 2.70321 1.88258C3.89487 0.736751 5.26987 0.00341797 8.29487 0.00341797H15.4449C18.4699 0.00341797 19.8449 0.736751 20.9907 1.83675C22.1365 3.02842 22.8699 4.40342 22.8699 7.42842V14.5784C22.8699 17.6034 22.1365 18.9784 21.0365 20.1243C19.8449 21.2701 18.4699 22.0034 15.4449 22.0034ZM8.29487 1.37842C5.45321 1.37842 4.44487 2.11175 3.66571 2.84508C2.97821 3.57842 2.24487 4.58675 2.24487 7.42842V14.5784C2.24487 17.4201 2.97821 18.4284 3.71154 19.2076C4.44487 19.9409 5.45321 20.6284 8.29487 20.6284H15.4449C18.2865 20.6284 19.2949 19.8951 20.074 19.1618C20.8074 18.4284 21.4949 17.4201 21.4949 14.5784V7.42842C21.4949 4.58675 20.7615 3.57842 20.0282 2.79925C19.2949 2.11175 18.2865 1.37842 15.4449 1.37842H8.29487Z" fill="white"/>
<path d="M17.5074 11.6909H6.23242C5.86576 11.6909 5.54492 11.3701 5.54492 11.0034C5.54492 10.6368 5.86576 10.3159 6.23242 10.3159H17.5074C17.8741 10.3159 18.1949 10.6368 18.1949 11.0034C18.1949 11.3701 17.8741 11.6909 17.5074 11.6909Z" fill="white"/>
<path d="M11.8699 17.3285C11.5032 17.3285 11.1824 17.0076 11.1824 16.641V5.36597C11.1824 4.9993 11.5032 4.67847 11.8699 4.67847C12.2365 4.67847 12.5574 4.9993 12.5574 5.36597V16.641C12.5574 17.0076 12.2365 17.3285 11.8699 17.3285Z" fill="white"/>
</g>
<defs>
<clipPath id="clip0_2_672">
<rect width="22" height="22" fill="white" transform="translate(0.869873 0.00341797)"/>
</clipPath>
</defs>
</svg>
