<svg width="11" height="11" viewBox="0 0 11 11" fill="none" xmlns="http://www.w3.org/2000/svg">
<path fill-rule="evenodd" clip-rule="evenodd" d="M0.617432 0.453125H10.4492V10.7531H0.617432V0.453125ZM1.3197 1.1554H3.6606V3.4963H1.3197V1.1554ZM6.70378 1.1554V3.4963H4.59696V1.1554H6.70378ZM7.64014 3.4963H9.74695V1.1554H7.64014V3.4963ZM3.6606 4.43266H1.3197V6.77356H3.6606V4.43266ZM6.70378 6.77356V4.43266H4.59696V6.77356H6.70378ZM9.74695 6.77356H7.64014V4.43266H9.74695V6.77356ZM3.6606 7.70992H1.3197V10.0508H3.6606V7.70992ZM6.70378 7.70992H4.59696V10.0508H6.70378V7.70992ZM7.64014 10.0508V7.70992H9.74695V10.0508H7.64014Z" fill="white"/>
</svg>
