<svg width="23" height="24" viewBox="0 0 23 24" fill="none" xmlns="http://www.w3.org/2000/svg">
<path fill-rule="evenodd" clip-rule="evenodd" d="M17.96 2.0135H5.08002C3.31271 2.0135 1.88002 3.44619 1.88002 5.2135V18.0935C1.88002 19.8608 3.31271 21.2935 5.08002 21.2935H17.96C19.7273 21.2935 21.16 19.8608 21.16 18.0935V5.2135C21.16 3.44619 19.7273 2.0135 17.96 2.0135ZM5.08002 0.213501C2.31859 0.213501 0.0800171 2.45208 0.0800171 5.2135V18.0935C0.0800171 20.8549 2.31859 23.0935 5.08002 23.0935H17.96C20.7214 23.0935 22.96 20.8549 22.96 18.0935V5.2135C22.96 2.45208 20.7214 0.213501 17.96 0.213501H5.08002Z" fill="white"/>
<line x1="0.995239" y1="6.63516" x2="22.0448" y2="6.63516" stroke="white" stroke-width="1.8"/>
<line x1="8.91389" y1="6.56908" x2="4.96209" y2="0.925325" stroke="white" stroke-width="1.8"/>
<line x1="16.1751" y1="6.58031" x2="12.163" y2="0.850467" stroke="white" stroke-width="1.8"/>
<path d="M14.8872 13.7411C15.5539 14.126 15.5539 15.0882 14.8872 15.4731L10.3368 18.1003C9.67014 18.4852 8.83681 18.0041 8.83681 17.2343L8.83681 11.9799C8.83681 11.2101 9.67014 10.729 10.3368 11.1139L14.8872 13.7411Z" fill="white"/>
</svg>
