<svg width="20" height="24" viewBox="0 0 20 24" fill="none" xmlns="http://www.w3.org/2000/svg">
<path d="M17.7244 6.43461H15.5289C15.5289 3.36293 13.1138 0.949463 10.04 0.949463C6.9662 0.949463 4.55108 3.36293 4.55108 6.43461H2.35553C1.14797 6.43461 0.159973 7.42194 0.159973 8.62867V21.793C0.159973 22.9998 1.14797 23.9871 2.35553 23.9871H17.7244C18.932 23.9871 19.92 22.9998 19.92 21.793V8.62867C19.92 7.42194 18.932 6.43461 17.7244 6.43461ZM10.04 3.14352C11.9062 3.14352 13.3333 4.56966 13.3333 6.43461H6.74664C6.74664 4.56966 8.17375 3.14352 10.04 3.14352ZM17.7244 21.793H2.35553V8.62867H17.7244V21.793ZM10.04 13.0168C8.17375 13.0168 6.74664 11.5906 6.74664 9.7257H4.55108C4.55108 12.7974 6.9662 15.2108 10.04 15.2108C13.1138 15.2108 15.5289 12.7974 15.5289 9.7257H13.3333C13.3333 11.5906 11.9062 13.0168 10.04 13.0168Z" fill="white"/>
</svg>
